first trial
nRows=35
nColumns=38

# SIMM Motion File Header:
name Sujet_07_velo_80.mvnx
datacolumns 38
datarows 35
otherdata 1
range 3.9000 4.4660
endheader
time pelvis_tilt  pelvis_list  pelvis_rotation  pelvis_tx  pelvis_ty  pelvis_tz  hip_flexion_r  hip_adduction_r  hip_rotation_r  knee_angle_r  ankle_angle_r  subtalar_angle_r  mtp_angle_r  hip_flexion_l  hip_adduction_l  hip_rotation_l  knee_angle_l  ankle_angle_l  subtalar_angle_l  mtp_angle_l  lumbar_extension  lumbar_bending  lumbar_rotation  arm_flex_r  arm_add_r  arm_rot_r  elbow_flex_r  pro_sup_r  wrist_flex_r  wrist_dev_r  arm_flex_l  arm_add_l  arm_rot_l  elbow_flex_l  pro_sup_l  wrist_flex_l  wrist_dev_l
3.9000	-28.3954	1.2973	-42.6369	0.0000	1.2500	-0.0000	52.8160	-9.5560	-5.6850	38.1148	-23.3496	2.9515	-0.0000	92.6584	-5.4034	-0.6482	96.3262	11.2085	-1.0581	0.0000	-16.7955	0.4448	-2.7015	100.5178	-4.2559	18.3067	10.7750	67.0322	-47.1685	-43.3813	87.8825	-4.6455	40.4088	10.2661	43.9883	-46.6330	-47.4509	
3.9160	-28.4375	1.3415	-42.8312	0.0000	1.2500	-0.0000	53.9195	-9.6860	-6.2646	42.2202	-22.3445	2.6783	0.0000	92.3773	-5.4496	-1.1938	93.0886	11.0323	-1.0915	0.0000	-16.8077	0.3971	-2.6787	100.5362	-4.2594	18.5052	10.7500	66.8989	-47.1465	-43.3461	87.9340	-4.6581	40.2704	10.2943	43.9992	-46.5829	-47.4203	
3.9330	-28.4396	1.3378	-43.1945	0.0000	1.2500	-0.0000	55.4675	-9.8067	-7.0062	47.0898	-21.0410	2.2673	0.0000	91.6088	-5.5709	-1.7818	89.2900	10.4710	-0.8244	-0.0000	-16.8300	0.3356	-2.6118	100.5580	-4.2546	18.7980	10.7100	66.7679	-47.1094	-43.2811	87.9702	-4.7089	40.1667	10.3349	43.9487	-46.5137	-47.4075	
3.9490	-28.3926	1.2299	-43.6398	0.0000	1.2500	-0.0000	57.2916	-9.8643	-7.3767	52.2188	-19.9195	2.0404	-0.0000	90.3104	-5.7242	-2.4669	85.1080	9.7007	-0.7318	0.0000	-16.8650	0.2986	-2.5146	100.5819	-4.2356	18.9778	10.6716	66.7889	-47.0642	-43.1858	87.9916	-4.7896	40.0930	10.3677	43.8547	-46.4388	-47.3867	
3.9660	-28.2723	0.9845	-44.1174	0.0000	1.2500	-0.0000	59.3934	-9.8070	-7.1281	57.6605	-19.1121	2.1077	0.0000	88.4188	-5.8645	-3.3585	80.5339	8.7227	-1.0561	-0.0000	-16.9205	0.3129	-2.3949	100.6142	-4.2068	18.8948	10.6347	67.0862	-47.0032	-43.0447	87.9900	-4.9046	40.0999	10.3971	43.6765	-46.3591	-47.3393	
3.9830	-28.1000	0.6373	-44.6751	0.0000	1.2500	-0.0000	61.7730	-9.6425	-6.5325	63.3907	-18.4651	2.3689	0.0000	85.9993	-6.0106	-4.3683	75.5694	7.5385	-1.5472	0.0000	-16.9894	0.3513	-2.2449	100.6491	-4.1652	18.6986	10.5991	67.5354	-46.9340	-42.8733	87.9734	-5.0493	40.1370	10.4177	43.4545	-46.2738	-47.2839	
4.0000	-27.9331	0.2348	-45.3724	0.0000	1.2500	-0.0000	64.2624	-9.3956	-5.8392	68.8158	-18.0209	2.8553	-0.0000	83.1995	-6.2248	-5.2620	70.4119	6.3287	-1.9382	0.0000	-17.0517	0.3706	-2.0544	100.6663	-4.0917	18.6306	10.5815	67.9130	-46.8872	-42.7179	87.9666	-5.2018	40.0480	10.3956	43.3292	-46.1940	-47.2508	
4.0160	-27.7813	-0.2190	-46.2276	0.0000	1.2500	-0.0000	66.8194	-9.0752	-5.1735	73.7770	-17.9540	3.7451	-0.0000	79.9279	-6.5221	-6.0777	64.9890	5.2622	-2.1605	-0.0000	-17.1035	0.3584	-1.8178	100.6356	-3.9717	18.8059	10.6025	68.1202	-46.8790	-42.5961	87.9835	-5.3513	39.7188	10.3070	43.4149	-46.1199	-47.2467	
4.0330	-27.6302	-0.7270	-47.2218	0.0000	1.2500	-0.0000	69.4828	-8.6540	-4.4406	78.4336	-18.0900	4.8831	0.0000	76.2686	-6.8748	-6.8309	59.3770	4.1734	-2.2832	0.0000	-17.1485	0.3271	-1.5408	100.5852	-3.8185	19.1089	10.6417	68.2560	-46.8933	-42.4903	88.0095	-5.5092	39.2634	10.1776	43.5974	-46.0511	-47.2647	
4.0490	-27.5029	-1.2561	-48.3608	0.0000	1.2500	-0.0000	72.2061	-8.1092	-3.5556	82.6663	-17.9655	5.8113	-0.0000	72.6236	-7.3213	-7.2563	54.0172	2.7368	-2.2413	0.0000	-17.1784	0.2711	-1.2306	100.5821	-3.6533	19.4350	10.6544	68.3939	-46.9118	-42.3941	88.0262	-5.6877	38.8677	10.0475	43.6738	-45.9979	-47.3146	
4.0660	-27.4017	-1.8074	-49.7361	0.0000	1.2500	-0.0000	75.0375	-7.3766	-2.3866	86.4457	-17.4937	6.4034	0.0000	68.9960	-7.9692	-7.1658	48.8983	0.7443	-1.9373	-0.0000	-17.1884	0.1710	-0.8739	100.6644	-3.4788	19.8066	10.6096	68.5225	-46.9343	-42.3129	88.0383	-5.9104	38.5967	9.9276	43.5602	-45.9434	-47.4030	
4.0830	-27.3182	-2.3809	-51.2572	0.0000	1.2500	-0.0000	77.9241	-6.4767	-1.1125	89.7869	-16.7660	6.7746	0.0000	65.3559	-8.7573	-6.8011	44.0293	-1.6033	-1.4606	-0.0000	-17.1827	0.0467	-0.4838	100.7930	-3.2906	20.2009	10.5380	68.6527	-46.9610	-42.2412	88.0398	-6.1531	38.3847	9.8058	43.3403	-45.9046	-47.5233	
4.0990	-27.2650	-2.9449	-52.6593	0.0000	1.2500	-0.0000	80.6706	-5.5520	-0.0810	92.6427	-15.5946	6.8182	0.0000	62.0680	-9.4892	-6.4792	39.8956	-4.0216	-1.0138	0.0000	-17.1674	-0.0487	-0.1078	100.9210	-3.1001	20.4461	10.4865	68.8907	-46.9745	-42.1559	87.9968	-6.3552	38.2210	9.6865	43.0609	-45.9420	-47.6661	
4.1160	-27.2557	-3.5114	-53.8879	0.0000	1.2500	-0.0000	83.2672	-4.6534	0.6639	95.0456	-13.8644	6.5392	0.0000	59.2651	-10.1375	-6.1861	36.6433	-6.6479	-0.6240	-0.0000	-17.1453	-0.0958	0.2512	101.0539	-2.9092	20.4104	10.4844	69.3529	-46.9572	-42.0293	87.8843	-6.4945	38.1215	9.5734	42.6973	-46.1346	-47.8501	
4.1330	-27.2804	-4.0722	-55.0004	0.0000	1.2500	-0.0000	85.7297	-3.7845	1.2012	96.9691	-11.6951	5.9177	0.0000	56.8268	-10.7495	-5.8751	34.1304	-9.3529	-0.2291	-0.0000	-17.1147	-0.1142	0.5961	101.1878	-2.7173	20.2258	10.4985	69.9223	-46.9263	-41.8885	87.7288	-6.5922	38.0704	9.4625	42.2736	-46.4039	-48.0574	
4.1490	-27.3223	-4.5652	-55.8978	0.0000	1.2500	-0.0000	87.9073	-3.0641	1.4248	98.2938	-9.2656	4.8416	-0.0000	54.7615	-11.2208	-5.7513	32.4386	-11.4411	0.0878	0.0000	-17.0755	-0.1095	0.8882	101.2620	-2.5336	20.1163	10.4852	70.3562	-46.9177	-41.7937	87.5750	-6.6531	38.0092	9.3467	41.9097	-46.5745	-48.2235	
4.1660	-27.3939	-4.9757	-56.5014	0.0000	1.2500	-0.0000	89.8104	-2.5730	1.2639	99.0231	-6.5260	3.1247	0.0000	53.0554	-11.4835	-5.9287	31.5477	-12.7002	0.2375	-0.0000	-17.0216	-0.0684	1.1097	101.2431	-2.3584	20.2034	10.4099	70.5342	-46.9570	-41.7895	87.4416	-6.6624	37.9059	9.2057	41.6542	-46.5486	-48.3142	
4.1830	-27.4905	-5.3187	-56.8906	0.0000	1.2500	-0.0000	91.4331	-2.2671	0.8504	99.1679	-3.5593	1.0590	-0.0000	51.7395	-11.6060	-6.2401	31.4848	-13.3287	0.2873	0.0000	-16.9585	-0.0041	1.2784	101.1647	-2.1921	20.3662	10.3113	70.5775	-47.0188	-41.8317	87.3109	-6.6355	37.7931	9.0600	41.4581	-46.4236	-48.3624	
4.1990	-27.5707	-5.5753	-57.2044	0.0000	1.2500	-0.0000	92.5986	-2.0652	0.3877	98.6183	-0.7113	-0.7837	-0.0000	50.8886	-11.6825	-6.4690	32.4095	-13.2420	0.3445	0.0000	-16.9024	0.0389	1.4093	101.0669	-2.0439	20.4654	10.2589	70.6065	-47.0624	-41.8475	87.1721	-6.6229	37.7081	8.9635	41.2960	-46.3175	-48.4038	
4.2160	-27.6167	-5.7490	-57.5326	0.0000	1.2500	-0.0000	93.2750	-1.9165	0.0198	97.3249	2.0415	-2.3068	-0.0000	50.5280	-11.7553	-6.5516	34.4832	-12.1780	0.4222	0.0000	-16.8596	0.0415	1.5136	100.9625	-1.9094	20.4335	10.3083	70.6761	-47.0604	-41.7860	87.0053	-6.6571	37.6578	8.9424	41.1526	-46.2652	-48.4576	
4.2330	-27.6484	-5.8353	-57.7844	0.0000	1.2500	-0.0000	93.4930	-1.8570	-0.3811	95.3318	4.7139	-3.6293	-0.0000	50.6333	-11.7918	-6.5401	37.5437	-10.3979	0.4810	0.0000	-16.8235	0.0227	1.5801	100.8395	-1.7928	20.3382	10.4044	70.7318	-47.0401	-41.6980	86.8302	-6.7060	37.6351	8.9709	41.0442	-46.2319	-48.5049	
4.2490	-27.6792	-5.8016	-57.8276	0.0000	1.2500	-0.0000	93.1699	-1.9224	-1.0294	92.6614	6.9774	-4.6060	-0.0000	51.2009	-11.7739	-6.4006	41.2712	-8.6074	0.5424	0.0000	-16.7909	-0.0045	1.5902	100.7007	-1.7159	20.2432	10.4495	70.7301	-47.0424	-41.6643	86.6958	-6.7246	37.6570	9.0243	40.9934	-46.2314	-48.5260	
4.2660	-27.7225	-5.6126	-57.5941	0.0000	1.2500	-0.0000	92.2288	-2.1128	-2.1244	89.1915	8.8282	-5.2050	0.0000	52.2999	-11.6756	-6.1214	45.7319	-6.9562	0.5528	-0.0000	-16.7566	-0.0419	1.5306	100.5307	-1.6798	20.1764	10.3777	70.6374	-47.0906	-41.7320	86.6267	-6.6920	37.7400	9.1046	41.0032	-46.2844	-48.5084	
4.2830	-27.7635	-5.3030	-57.1515	0.0000	1.2500	-0.0000	90.7498	-2.3951	-3.4834	85.0350	10.2742	-5.5526	0.0000	53.8592	-11.5079	-5.7291	50.8621	-5.2964	0.5563	-0.0000	-16.7261	-0.0880	1.4146	100.3446	-1.6828	20.1100	10.2545	70.4872	-47.1614	-41.8541	86.5981	-6.6294	37.8674	9.2096	41.0706	-46.3702	-48.4645	
4.2990	-27.7740	-4.9471	-56.5709	0.0000	1.2500	-0.0000	88.8839	-2.7636	-4.7550	80.5683	10.9953	-5.7198	0.0000	55.6643	-11.3043	-5.2479	56.1492	-3.8862	0.7191	0.0000	-16.7129	-0.1246	1.2634	100.1909	-1.7433	20.0233	10.1790	70.3351	-47.2273	-41.9709	86.5849	-6.5543	38.0056	9.3088	41.2091	-46.4401	-48.4119	
4.3160	-27.7326	-4.5605	-55.8644	0.0000	1.2500	-0.0000	86.6109	-3.2249	-5.8503	75.8204	10.8560	-5.7374	0.0000	57.6898	-11.0779	-4.6348	61.5569	-2.8800	1.1405	0.0000	-16.7267	-0.1505	1.0827	100.1033	-1.8911	19.8991	10.1962	70.1980	-47.2774	-42.0588	86.5814	-6.4660	38.1324	9.3901	41.4597	-46.4764	-48.3559	
4.3330	-27.6572	-4.1295	-55.0217	0.0000	1.2500	-0.0000	83.9481	-3.7599	-6.9001	70.7647	9.9909	-5.5672	-0.0000	59.9590	-10.7875	-3.9543	67.1208	-2.1189	1.7266	-0.0000	-16.7583	-0.1666	0.8669	100.0468	-2.0966	19.7539	10.2607	70.0587	-47.3223	-42.1411	86.5928	-6.3647	38.2697	9.4649	41.7808	-46.4971	-48.2915	
4.3500	-27.5812	-3.6845	-54.0800	0.0000	1.2500	-0.0000	81.0975	-4.3480	-7.8741	65.7025	8.4818	-5.1448	0.0000	62.3295	-10.4006	-3.3847	72.4363	-1.3868	2.3585	0.0000	-16.7912	-0.1576	0.6204	99.9676	-2.2895	19.6180	10.3367	69.9209	-47.3664	-42.2288	86.6109	-6.2694	38.4500	9.5373	42.0627	-46.5069	-48.2211	
4.3660	-27.4993	-3.2341	-53.0195	0.0000	1.2500	-0.0000	78.0576	-5.0059	-8.8564	60.6782	6.2364	-4.3637	-0.0000	64.7654	-9.8952	-3.0875	77.4180	-0.6998	3.1155	-0.0000	-16.8244	-0.1089	0.3346	99.8309	-2.4367	19.5094	10.4074	69.7944	-47.4149	-42.3228	86.6120	-6.2011	38.7095	9.6107	42.2399	-46.4940	-48.1404	
4.3830	-27.4141	-2.7702	-51.8605	0.0000	1.2500	-0.0000	74.8218	-5.7026	-9.8011	55.6503	3.3390	-3.3576	-0.0000	67.2923	-9.3024	-2.9295	82.1497	-0.0409	3.9248	-0.0000	-16.8584	-0.0351	0.0180	99.6722	-2.5708	19.4100	10.4894	69.6693	-47.4626	-42.4222	86.6195	-6.1387	39.0123	9.6823	42.3785	-46.4703	-48.0538	
4.3990	-27.3725	-2.2947	-50.6985	0.0000	1.2500	-0.0000	71.5850	-6.3809	-10.4570	50.7975	0.1276	-2.4091	-0.0000	69.8636	-8.6737	-2.6343	86.4828	0.8531	4.4402	-0.0000	-16.8792	0.0348	-0.2993	99.5437	-2.7200	19.2968	10.5974	69.5203	-47.4989	-42.5355	86.6963	-6.0374	39.2819	9.7480	42.5667	-46.4770	-47.9767	
4.4160	-27.3978	-1.7961	-49.5341	0.0000	1.2500	-0.0000	68.3286	-7.1056	-10.7081	46.0499	-3.4599	-1.5472	0.0000	72.5183	-7.9856	-2.0550	90.4219	2.0784	4.5903	0.0000	-16.8846	0.0932	-0.6132	99.4674	-2.8981	19.1401	10.7445	69.3398	-47.5142	-42.6698	86.9034	-5.8692	39.4699	9.8069	42.8776	-46.5395	-47.9165	
4.4330	-27.4656	-1.2813	-48.3635	0.0000	1.2500	-0.0000	65.0606	-7.8649	-10.6794	41.4757	-7.3711	-0.7081	-0.0000	75.2208	-7.2375	-1.3499	93.9634	3.5314	4.4559	0.0000	-16.8770	0.1478	-0.9278	99.4203	-3.0911	18.9688	10.9175	69.1352	-47.5182	-42.8182	87.1788	-5.6603	39.6245	9.8590	43.2378	-46.6322	-47.8655	
4.4490	-27.5560	-0.7791	-47.2756	0.0000	1.2500	-0.0000	62.0233	-8.5169	-10.4360	37.4596	-11.0944	-0.0128	0.0000	77.8213	-6.5191	-0.6729	96.9485	5.1719	3.9235	0.0000	-16.8497	0.1925	-1.2260	99.3876	-3.2866	18.8475	11.0914	68.9028	-47.5290	-42.9679	87.4007	-5.4480	39.8149	9.9013	43.5154	-46.7201	-47.8167	
4.4660	-27.6630	-0.2876	-46.2931	0.0000	1.2500	-0.0000	59.2433	-9.0570	-9.8812	34.0381	-14.6521	0.5345	-0.0000	80.3148	-5.8647	0.0147	99.3940	7.1012	2.8133	0.0000	-16.7954	0.2227	-1.5051	99.3801	-3.4996	18.8294	11.2543	68.6068	-47.5604	-43.1296	87.5164	-5.2430	40.1110	9.9299	43.6160	-46.8017	-47.7654	
